<svg xmlns="http://www.w3.org/2000/svg" width="34.72" height="32" viewBox="0 0 512 512">
  <path fill="#285BF4" d="M 315 294 L 314 295 L 312 295 L 311 296 L 310 296 L 309 297 L 308 297 L 304 301 L 304 302 L 302 304 L 302 305 L 301 306 L 301 307 L 300 308 L 300 310 L 299 311 L 299 312 L 297 314 L 297 315 L 295 317 L 295 318 L 292 321 L 292 322 L 281 333 L 280 333 L 277 336 L 276 336 L 274 338 L 273 338 L 272 339 L 271 339 L 269 341 L 268 341 L 267 342 L 266 342 L 265 343 L 264 343 L 263 344 L 262 344 L 261 345 L 260 345 L 259 346 L 258 346 L 257 347 L 256 347 L 255 348 L 254 348 L 253 349 L 252 349 L 251 350 L 250 350 L 249 351 L 248 351 L 341 351 L 342 350 L 345 350 L 346 349 L 347 349 L 348 348 L 349 348 L 350 347 L 351 347 L 352 346 L 353 346 L 359 340 L 359 339 L 361 337 L 361 336 L 362 335 L 362 334 L 363 333 L 363 331 L 364 330 L 364 316 L 363 315 L 363 313 L 362 312 L 362 310 L 361 309 L 361 308 L 359 306 L 359 305 L 353 299 L 352 299 L 351 298 L 350 298 L 348 296 L 346 296 L 345 295 L 343 295 L 342 294 Z"/>
  <path fill="#285BF4" d="M 343 222 L 342 223 L 340 223 L 339 224 L 337 224 L 336 225 L 335 225 L 332 228 L 331 228 L 329 230 L 329 231 L 327 233 L 327 234 L 326 235 L 326 236 L 325 237 L 325 238 L 324 239 L 324 241 L 323 242 L 323 243 L 322 244 L 322 246 L 321 247 L 321 249 L 320 250 L 320 252 L 319 253 L 319 255 L 318 256 L 318 257 L 317 258 L 317 260 L 316 261 L 316 263 L 315 264 L 315 266 L 314 267 L 314 268 L 313 269 L 313 271 L 312 272 L 312 274 L 311 275 L 311 277 L 310 278 L 310 279 L 383 279 L 384 278 L 387 278 L 388 277 L 390 277 L 391 276 L 392 276 L 394 274 L 395 274 L 402 267 L 402 266 L 404 264 L 404 263 L 405 262 L 405 260 L 406 259 L 406 256 L 407 255 L 407 246 L 406 245 L 406 242 L 405 241 L 405 239 L 404 238 L 404 237 L 402 235 L 402 234 L 394 226 L 393 226 L 392 225 L 391 225 L 390 224 L 388 224 L 387 223 L 385 223 L 384 222 Z"/>
  <path fill="#285BF4" d="M 294 161 L 293 162 L 287 162 L 286 163 L 283 163 L 282 164 L 279 164 L 278 165 L 276 165 L 275 166 L 273 166 L 272 167 L 271 167 L 270 168 L 269 168 L 268 169 L 267 169 L 266 170 L 265 170 L 264 171 L 263 171 L 262 172 L 261 172 L 258 175 L 257 175 L 253 179 L 252 179 L 250 181 L 250 182 L 245 187 L 245 188 L 243 190 L 243 191 L 242 192 L 242 193 L 241 194 L 241 195 L 240 196 L 240 197 L 239 198 L 239 200 L 238 201 L 238 203 L 237 204 L 237 206 L 236 207 L 236 209 L 235 210 L 235 212 L 234 213 L 234 215 L 233 216 L 233 218 L 232 219 L 232 227 L 233 228 L 233 229 L 234 230 L 234 231 L 238 235 L 240 235 L 241 236 L 294 236 L 294 235 L 295 234 L 295 233 L 296 232 L 296 231 L 297 230 L 297 229 L 298 228 L 298 227 L 301 224 L 301 223 L 311 213 L 312 213 L 314 211 L 315 211 L 317 209 L 318 209 L 319 208 L 320 208 L 321 207 L 322 207 L 323 206 L 325 206 L 326 205 L 328 205 L 329 204 L 333 204 L 334 203 L 344 203 L 345 202 L 345 201 L 346 200 L 346 187 L 345 186 L 345 184 L 344 183 L 344 181 L 342 179 L 342 178 L 340 176 L 340 175 L 336 171 L 335 171 L 333 169 L 332 169 L 330 167 L 329 167 L 328 166 L 326 166 L 325 165 L 324 165 L 323 164 L 320 164 L 319 163 L 316 163 L 315 162 L 310 162 L 309 161 Z"/>
  <path fill="#4191F6" d="M 193 259 L 192 260 L 189 260 L 188 261 L 185 261 L 184 262 L 182 262 L 181 263 L 178 263 L 177 264 L 174 264 L 173 265 L 171 265 L 170 266 L 167 266 L 166 267 L 164 267 L 163 268 L 160 268 L 159 269 L 157 269 L 156 270 L 153 270 L 152 271 L 149 271 L 148 272 L 145 272 L 144 273 L 142 273 L 141 274 L 138 274 L 137 275 L 134 275 L 133 276 L 131 276 L 130 277 L 127 277 L 126 278 L 123 278 L 122 279 L 120 279 L 119 280 L 115 280 L 114 281 L 114 283 L 116 285 L 116 286 L 118 288 L 118 289 L 120 291 L 121 291 L 122 292 L 122 294 L 126 298 L 127 298 L 131 302 L 132 302 L 134 304 L 135 304 L 136 305 L 137 305 L 138 306 L 139 306 L 140 307 L 141 307 L 142 308 L 143 308 L 144 309 L 146 309 L 147 310 L 150 310 L 151 311 L 154 311 L 155 312 L 163 312 L 164 313 L 166 313 L 167 312 L 171 312 L 172 311 L 173 311 L 174 310 L 175 310 L 180 305 L 180 304 L 181 303 L 181 302 L 182 301 L 182 299 L 183 298 L 183 296 L 184 295 L 184 293 L 185 292 L 185 290 L 186 289 L 186 287 L 187 286 L 187 284 L 186 283 L 188 281 L 188 280 L 189 279 L 189 277 L 190 276 L 190 274 L 191 273 L 191 271 L 192 270 L 192 268 L 193 267 L 193 265 L 194 264 L 194 262 L 195 261 L 195 259 Z"/>
  <path fill="#4191F6" d="M 235 255 L 234 256 L 230 256 L 229 257 L 227 257 L 226 258 L 225 258 L 219 264 L 219 265 L 217 267 L 217 269 L 216 270 L 216 272 L 215 273 L 215 275 L 214 276 L 214 279 L 213 280 L 214 281 L 212 283 L 212 285 L 211 286 L 211 288 L 210 289 L 210 291 L 209 292 L 209 294 L 208 295 L 208 297 L 207 298 L 207 300 L 206 301 L 206 303 L 205 304 L 205 306 L 204 307 L 204 309 L 203 310 L 203 313 L 241 313 L 242 312 L 249 312 L 250 311 L 252 311 L 253 310 L 255 310 L 256 309 L 257 309 L 258 308 L 259 308 L 260 307 L 261 307 L 264 304 L 265 304 L 269 300 L 269 299 L 272 296 L 272 295 L 274 293 L 274 292 L 275 291 L 275 289 L 276 288 L 276 287 L 277 286 L 277 284 L 278 283 L 278 280 L 279 279 L 279 278 L 280 277 L 280 275 L 281 274 L 281 273 L 282 272 L 282 270 L 283 269 L 283 267 L 284 266 L 284 263 L 283 262 L 283 260 L 279 256 L 276 256 L 275 255 Z"/>
  <path fill="#49A0F7" d="M 200 235 L 199 236 L 196 236 L 195 237 L 193 237 L 192 238 L 189 238 L 188 239 L 185 239 L 184 240 L 183 240 L 182 239 L 180 241 L 178 241 L 177 242 L 174 242 L 173 243 L 171 243 L 170 244 L 167 244 L 166 243 L 167 244 L 166 245 L 163 245 L 162 246 L 160 246 L 159 247 L 156 247 L 155 248 L 152 248 L 151 249 L 148 249 L 147 250 L 145 250 L 144 251 L 141 251 L 140 252 L 138 252 L 137 251 L 138 252 L 137 253 L 134 253 L 133 254 L 130 254 L 129 255 L 127 255 L 126 256 L 123 256 L 122 257 L 119 257 L 118 258 L 117 258 L 116 257 L 114 259 L 111 259 L 110 260 L 108 260 L 107 261 L 107 265 L 108 266 L 108 269 L 109 270 L 109 272 L 110 273 L 110 275 L 111 276 L 111 277 L 112 278 L 112 279 L 113 280 L 113 281 L 115 279 L 119 279 L 120 278 L 122 278 L 123 277 L 126 277 L 127 276 L 130 276 L 131 275 L 133 275 L 134 274 L 137 274 L 138 273 L 141 273 L 142 272 L 144 272 L 145 271 L 148 271 L 149 270 L 152 270 L 153 269 L 156 269 L 157 268 L 159 268 L 160 267 L 163 267 L 164 266 L 166 266 L 167 265 L 170 265 L 171 264 L 173 264 L 174 263 L 177 263 L 178 262 L 181 262 L 182 261 L 184 261 L 185 260 L 188 260 L 189 259 L 192 259 L 193 258 L 196 258 L 196 256 L 197 255 L 197 253 L 198 252 L 198 250 L 199 249 L 199 247 L 200 246 L 200 245 L 201 244 L 201 242 L 202 241 L 202 239 L 203 238 L 203 235 Z"/>
  <path fill="#50AFF8" d="M 162 193 L 161 194 L 154 194 L 153 195 L 150 195 L 149 196 L 147 196 L 146 197 L 144 197 L 143 198 L 142 198 L 141 199 L 140 199 L 139 200 L 138 200 L 137 201 L 136 201 L 135 202 L 134 202 L 132 204 L 131 204 L 128 207 L 127 207 L 120 214 L 120 215 L 116 219 L 116 220 L 114 222 L 114 223 L 113 224 L 113 225 L 112 226 L 112 227 L 111 228 L 111 230 L 110 231 L 110 232 L 109 233 L 109 235 L 108 236 L 108 240 L 107 241 L 107 245 L 106 246 L 106 247 L 107 248 L 106 249 L 106 259 L 107 260 L 108 259 L 110 259 L 111 258 L 114 258 L 116 256 L 117 257 L 118 257 L 119 256 L 122 256 L 123 255 L 126 255 L 127 254 L 129 254 L 130 253 L 133 253 L 134 252 L 137 252 L 138 251 L 140 251 L 141 250 L 144 250 L 145 249 L 147 249 L 148 248 L 151 248 L 152 247 L 155 247 L 156 246 L 159 246 L 160 245 L 162 245 L 163 244 L 166 244 L 167 243 L 170 243 L 171 242 L 173 242 L 174 241 L 177 241 L 178 240 L 180 240 L 182 238 L 183 239 L 184 239 L 185 238 L 188 238 L 189 237 L 192 237 L 193 236 L 195 236 L 196 235 L 199 235 L 200 234 L 203 234 L 204 235 L 204 233 L 205 232 L 205 230 L 206 229 L 206 227 L 207 226 L 207 224 L 208 223 L 208 220 L 209 219 L 209 209 L 208 208 L 208 206 L 207 205 L 207 204 L 203 200 L 203 199 L 202 198 L 201 198 L 199 196 L 198 196 L 197 195 L 196 195 L 195 194 L 191 194 L 190 193 Z"/>
</svg>