<svg version="1.1" id="Layer_1" xmlns="http://www.w3.org/2000/svg" xmlns:xlink="http://www.w3.org/1999/xlink" x="0px" y="0px"
	 width="100%" viewBox="0 0 4501 4500" enable-background="new 0 0 4501 4500" xml:space="preserve">
<path fill="#FFFFFF" opacity="1.000000" stroke="none" 
	d="
M2516.000000,4504.000000 
	C1677.426025,4504.000000 840.851990,4504.000000 4.138986,4504.000000 
	C4.138986,3004.258789 4.138986,1504.517578 4.138986,4.388163 
	C1504.908325,4.388163 3005.816650,4.388163 4507.362305,4.388163 
	C4507.362305,1503.999756 4507.362305,3003.999756 4507.362305,4504.000000 
	C3844.515869,4504.000000 3181.258057,4504.000000 2516.000000,4504.000000 
M940.617310,2114.218506 
	C936.271545,2137.315674 930.478699,2160.218506 929.675781,2186.929932 
	C927.715088,2222.043701 926.268677,2257.142334 932.324768,2295.311035 
	C939.751404,2356.424072 958.075806,2414.186523 985.862610,2469.017090 
	C987.317932,2471.889160 989.588318,2474.347900 991.860046,2479.748535 
	C1016.019836,2526.682617 1047.958252,2567.970947 1084.999878,2605.220703 
	C1099.358276,2619.659912 1113.682739,2634.589355 1132.956787,2647.256104 
	C1185.307983,2689.810059 1244.664185,2718.857178 1309.015869,2738.078125 
	C1353.282593,2751.300293 1398.688843,2757.809570 1444.789551,2759.674072 
	C1464.191040,2760.458984 1483.446045,2759.284180 1502.177246,2753.716309 
	C1557.597412,2737.243652 1593.215454,2700.587891 1611.258667,2646.187500 
	C1625.933105,2601.945068 1640.569580,2557.689697 1655.085327,2513.395020 
	C1657.353149,2506.474609 1658.888306,2499.313965 1662.727783,2490.172607 
	C1678.360840,2442.956787 1694.054443,2395.761230 1709.602905,2348.517334 
	C1717.892944,2323.328369 1725.932129,2298.056885 1735.585083,2270.449463 
	C1757.846558,2203.558594 1780.125610,2136.673828 1802.313721,2069.758545 
	C1803.342407,2066.656006 1803.555786,2063.283203 1806.107178,2057.953857 
	C1818.284546,2021.203613 1830.485718,1984.461060 1842.585815,1947.685303 
	C1843.386597,1945.251587 1843.419067,1942.564941 1845.479858,1937.237793 
	C1850.746460,1915.882812 1854.742676,1894.426025 1851.339600,1869.562256 
	C1849.436768,1859.189331 1847.546875,1848.813843 1845.628296,1838.443970 
	C1842.450928,1821.269775 1832.374878,1807.124268 1825.248535,1791.671021 
	C1821.312134,1783.135132 1816.447876,1775.524414 1808.635254,1766.828125 
	C1769.777954,1719.421265 1719.165283,1696.732544 1658.405518,1696.383179 
	C1591.763062,1696.000000 1525.116577,1696.350098 1458.472046,1696.271240 
	C1426.399902,1696.233276 1394.481445,1698.983276 1363.131470,1705.166626 
	C1221.429321,1733.115479 1108.139282,1805.822510 1024.039673,1923.358032 
	C1007.787292,1946.072021 992.858948,1969.777100 980.668396,1997.912720 
	C963.486206,2034.336426 949.134155,2071.723633 940.617310,2114.218506 
M2504.820801,2304.665283 
	C2493.989258,2264.128662 2462.991699,2240.397461 2419.819336,2240.343750 
	C2306.016846,2240.202393 2192.213623,2240.125244 2078.411865,2240.373291 
	C1998.913086,2240.546387 1928.601807,2288.651367 1901.257202,2363.151123 
	C1887.760742,2399.922363 1877.550171,2437.899658 1864.405273,2477.733398 
	C1851.064697,2519.578125 1837.653687,2561.400635 1824.437256,2603.284424 
	C1821.450806,2612.749268 1819.141968,2622.427734 1814.969360,2634.532227 
	C1795.368530,2689.922363 1778.984497,2744.097412 1777.460815,2759.428467 
	C1784.792236,2759.522217 1792.034912,2759.693604 1799.277588,2759.695068 
	C1901.842651,2759.718506 2004.407959,2759.869385 2106.972168,2759.581787 
	C2124.891113,2759.531494 2142.931396,2758.619385 2160.699463,2756.386719 
	C2246.225342,2745.638672 2317.116699,2706.862061 2374.364990,2642.805664 
	C2379.156494,2637.444336 2381.783447,2630.148682 2386.574463,2624.786865 
	C2403.844482,2605.460693 2417.613281,2583.740967 2427.305176,2560.019043 
	C2440.117676,2528.658447 2450.721191,2496.395264 2463.814941,2462.302002 
	C2476.138184,2428.099121 2488.514648,2393.915039 2500.736084,2359.675781 
	C2502.953857,2353.463379 2505.332520,2347.135742 2506.237061,2340.665527 
	C2507.770264,2329.697754 2510.216553,2318.468994 2504.820801,2304.665283 
M3035.860596,1602.331909 
	C3019.123535,1563.574219 2993.377197,1531.730347 2960.864502,1505.192993 
	C2923.718994,1474.874634 2881.479492,1454.058228 2836.015625,1439.602783 
	C2749.491455,1412.092163 2661.009521,1406.905029 2571.334717,1417.669434 
	C2520.941162,1423.718384 2471.684082,1435.123413 2423.832764,1452.160767 
	C2340.480469,1481.838135 2265.918213,1525.578979 2203.385498,1589.021484 
	C2152.415283,1640.732666 2115.295898,1700.775269 2092.349854,1769.517700 
	C2074.855225,1821.929688 2058.124268,1874.596191 2040.941528,1927.112915 
	C2036.961548,1939.276489 2035.166626,1951.727539 2034.895996,1964.448975 
	C2033.314209,2038.784058 2096.401123,2089.694336 2153.951660,2089.390625 
	C2294.584229,2088.648193 2435.223389,2089.159912 2575.859863,2089.078857 
	C2580.358154,2089.076416 2584.856201,2088.112549 2589.228760,2087.611084 
	C2592.970215,2079.544678 2596.258057,2072.291992 2599.680664,2065.103271 
	C2631.942627,1997.346436 2675.522217,1938.432251 2734.776123,1891.662842 
	C2796.141113,1843.226929 2864.886230,1811.205566 2942.354248,1799.391846 
	C2967.295898,1795.588257 2992.663330,1794.552734 3017.845215,1792.358032 
	C3026.285889,1791.622559 3034.978516,1793.016968 3043.483154,1789.755859 
	C3060.113770,1727.239624 3061.860840,1665.785156 3035.860596,1602.331909 
M2854.000000,2464.343750 
	C3007.954834,2464.343750 3161.909912,2464.345703 3315.864746,2464.337402 
	C3323.195068,2464.336914 3330.535400,2464.473145 3337.854248,2464.156250 
	C3408.286621,2461.106689 3468.442383,2434.682861 3517.493164,2383.979492 
	C3602.107666,2296.514648 3610.506348,2164.921631 3553.460449,2073.813232 
	C3500.979248,1989.995239 3422.951172,1947.902954 3324.967529,1945.547729 
	C3238.376221,1943.466187 3151.695557,1945.062744 3065.054199,1945.148071 
	C3044.289062,1945.168579 3023.829834,1948.247314 3004.033203,1954.326538 
	C2930.612549,1976.873535 2879.155029,2023.652710 2851.243408,2095.395752 
	C2839.177734,2126.407959 2828.407959,2157.925049 2817.120361,2189.238281 
	C2786.418457,2274.407227 2755.669189,2359.559082 2725.264893,2444.833984 
	C2723.237793,2450.519531 2718.320557,2456.305420 2722.125000,2464.343750 
	C2764.801270,2464.343750 2807.400635,2464.343750 2854.000000,2464.343750 
M3029.610596,3087.847656 
	C3079.498047,3072.944580 3121.921631,3045.987793 3154.633301,3005.663574 
	C3216.550537,2929.336670 3232.571533,2843.546875 3200.077393,2750.635254 
	C3161.661621,2640.791748 3056.120605,2578.407471 2958.294678,2579.548584 
	C2908.331055,2580.131348 2858.343750,2578.982178 2808.386963,2579.809814 
	C2737.131836,2580.990234 2685.868164,2614.772705 2653.659180,2677.953857 
	C2649.734375,2685.652832 2646.895264,2693.902100 2643.037354,2701.639160 
	C2632.647949,2722.475342 2623.541016,2744.158936 2611.159180,2763.759033 
	C2547.092529,2865.176758 2461.201660,2943.050781 2354.475586,2997.848877 
	C2323.680176,3013.660400 2292.670410,3029.054688 2261.817871,3044.755859 
	C2231.558105,3060.155518 2201.361084,3075.679199 2171.175537,3091.223877 
	C2168.502441,3092.600342 2164.399170,3092.807861 2164.925781,3098.893555 
	C2167.877197,3098.893555 2170.926270,3098.893555 2173.975342,3098.893555 
	C2433.822510,3098.893555 2693.669678,3098.975098 2953.516846,3098.761230 
	C2978.173340,3098.740967 3002.678467,3095.813477 3029.610596,3087.847656 
z"/>
<path fill="#095BFF" opacity="1.000000" stroke="none" 
	d="
M3036.372559,1603.777832 
	C3061.860840,1665.785156 3060.113770,1727.239624 3043.483154,1789.755859 
	C3034.978516,1793.016968 3026.285889,1791.622559 3017.845215,1792.358032 
	C2992.663330,1794.552734 2967.295898,1795.588257 2942.354248,1799.391846 
	C2864.886230,1811.205566 2796.141113,1843.226929 2734.776123,1891.662842 
	C2675.522217,1938.432251 2631.942627,1997.346436 2599.680664,2065.103271 
	C2596.258057,2072.291992 2592.970215,2079.544678 2589.228760,2087.611084 
	C2584.856201,2088.112549 2580.358154,2089.076416 2575.859863,2089.078857 
	C2435.223389,2089.159912 2294.584229,2088.648193 2153.951660,2089.390625 
	C2096.401123,2089.694336 2033.314209,2038.784058 2034.895996,1964.448975 
	C2035.166626,1951.727539 2036.961548,1939.276489 2040.941528,1927.112915 
	C2058.124268,1874.596191 2074.855225,1821.929688 2092.349854,1769.517700 
	C2115.295898,1700.775269 2152.415283,1640.732666 2203.385498,1589.021484 
	C2265.918213,1525.578979 2340.480469,1481.838135 2423.832764,1452.160767 
	C2471.684082,1435.123413 2520.941162,1423.718384 2571.334717,1417.669434 
	C2661.009521,1406.905029 2749.491455,1412.092163 2836.015625,1439.602783 
	C2881.479492,1454.058228 2923.718994,1474.874634 2960.864502,1505.192993 
	C2993.377197,1531.730347 3019.123535,1563.574219 3036.372559,1603.777832 
z"/>
<path fill="#095CFF" opacity="1.000000" stroke="none" 
	d="
M2852.000000,2464.343750 
	C2807.400635,2464.343750 2764.801270,2464.343750 2722.125000,2464.343750 
	C2718.320557,2456.305420 2723.237793,2450.519531 2725.264893,2444.833984 
	C2755.669189,2359.559082 2786.418457,2274.407227 2817.120361,2189.238281 
	C2828.407959,2157.925049 2839.177734,2126.407959 2851.243408,2095.395752 
	C2879.155029,2023.652710 2930.612549,1976.873535 3004.033203,1954.326538 
	C3023.829834,1948.247314 3044.289062,1945.168579 3065.054199,1945.148071 
	C3151.695557,1945.062744 3238.376221,1943.466187 3324.967529,1945.547729 
	C3422.951172,1947.902954 3500.979248,1989.995239 3553.460449,2073.813232 
	C3610.506348,2164.921631 3602.107666,2296.514648 3517.493164,2383.979492 
	C3468.442383,2434.682861 3408.286621,2461.106689 3337.854248,2464.156250 
	C3330.535400,2464.473145 3323.195068,2464.336914 3315.864746,2464.337402 
	C3161.909912,2464.345703 3007.954834,2464.343750 2852.000000,2464.343750 
z"/>
<path fill="#0A5CFF" opacity="1.000000" stroke="none" 
	d="
M3028.031494,3088.209473 
	C3002.678467,3095.813477 2978.173340,3098.740967 2953.516846,3098.761230 
	C2693.669678,3098.975098 2433.822510,3098.893555 2173.975342,3098.893555 
	C2170.926270,3098.893555 2167.877197,3098.893555 2164.925781,3098.893555 
	C2164.399170,3092.807861 2168.502441,3092.600342 2171.175537,3091.223877 
	C2201.361084,3075.679199 2231.558105,3060.155518 2261.817871,3044.755859 
	C2292.670410,3029.054688 2323.680176,3013.660400 2354.475586,2997.848877 
	C2461.201660,2943.050781 2547.092529,2865.176758 2611.159180,2763.759033 
	C2623.541016,2744.158936 2632.647949,2722.475342 2643.037354,2701.639160 
	C2646.895264,2693.902100 2649.734375,2685.652832 2653.659180,2677.953857 
	C2685.868164,2614.772705 2737.131836,2580.990234 2808.386963,2579.809814 
	C2858.343750,2578.982178 2908.331055,2580.131348 2958.294678,2579.548584 
	C3056.120605,2578.407471 3161.661621,2640.791748 3200.077393,2750.635254 
	C3232.571533,2843.546875 3216.550537,2929.336670 3154.633301,3005.663574 
	C3121.921631,3045.987793 3079.498047,3072.944580 3028.031494,3088.209473 
z"/>
<path fill="#00A5FF" opacity="1.000000" stroke="none" 
	d="
M991.479248,2476.999268 
	C989.588318,2474.347900 987.317932,2471.889160 985.862610,2469.017090 
	C958.075806,2414.186523 939.751404,2356.424072 934.156189,2293.658447 
	C941.848938,2291.117676 947.779114,2290.540283 953.554138,2289.262207 
	C960.670044,2287.687012 967.661072,2285.544434 974.698425,2283.618896 
	C997.079407,2277.496094 1019.454773,2271.352783 1041.836060,2265.230957 
	C1077.653687,2255.433838 1113.473511,2245.644043 1149.294312,2235.858398 
	C1172.316406,2229.569336 1195.348755,2223.317383 1218.364624,2217.005615 
	C1253.540405,2207.359619 1288.688843,2197.613281 1323.881836,2188.030273 
	C1346.906738,2181.760498 1370.010742,2175.781494 1393.042236,2169.535400 
	C1429.519775,2159.642334 1465.971069,2149.652100 1502.424072,2139.668945 
	C1525.443359,2133.364746 1548.435913,2126.963135 1571.457397,2120.666748 
	C1606.636108,2111.045410 1641.830566,2101.481445 1677.016357,2091.885254 
	C1702.609253,2084.905273 1728.152954,2077.738770 1753.805908,2070.987305 
	C1770.416382,2066.615479 1786.638550,2060.318115 1804.148926,2060.036133 
	C1803.555786,2063.283203 1803.342407,2066.656006 1802.313721,2069.758545 
	C1780.125610,2136.673828 1757.846558,2203.558594 1733.346436,2271.071045 
	C1726.848145,2269.151367 1722.750000,2269.343994 1717.842041,2270.660645 
	C1688.413208,2278.555176 1658.740479,2285.548340 1629.353027,2293.587891 
	C1579.495605,2307.226807 1529.823853,2321.543213 1480.009277,2335.339844 
	C1436.588623,2347.365479 1393.075073,2359.055420 1349.607910,2370.913574 
	C1290.798706,2386.956543 1232.035034,2403.168701 1173.176025,2419.026611 
	C1121.363037,2432.985840 1069.385376,2446.337158 1017.626709,2460.491943 
	C1007.607727,2463.232178 996.934814,2466.365479 991.479248,2476.999268 
z"/>
<path fill="#009AFF" opacity="1.000000" stroke="none" 
	d="
M991.669678,2478.374023 
	C996.934814,2466.365479 1007.607727,2463.232178 1017.626709,2460.491943 
	C1069.385376,2446.337158 1121.363037,2432.985840 1173.176025,2419.026611 
	C1232.035034,2403.168701 1290.798706,2386.956543 1349.607910,2370.913574 
	C1393.075073,2359.055420 1436.588623,2347.365479 1480.009277,2335.339844 
	C1529.823853,2321.543213 1579.495605,2307.226807 1629.353027,2293.587891 
	C1658.740479,2285.548340 1688.413208,2278.555176 1717.842041,2270.660645 
	C1722.750000,2269.343994 1726.848145,2269.151367 1732.596191,2272.257568 
	C1725.932129,2298.056885 1717.892944,2323.328369 1709.602905,2348.517334 
	C1694.054443,2395.761230 1678.360840,2442.956787 1659.972412,2491.141602 
	C1649.265381,2492.091553 1641.571289,2492.365234 1633.636230,2494.685059 
	C1605.045776,2503.043213 1576.178833,2510.455322 1547.416870,2518.226807 
	C1526.970093,2523.751221 1506.514893,2529.245117 1486.080200,2534.813721 
	C1450.307861,2544.562256 1414.550293,2554.365967 1378.782593,2564.131104 
	C1355.794678,2570.406982 1332.798706,2576.653320 1309.807739,2582.917969 
	C1274.035278,2592.664795 1238.252808,2602.375000 1202.496704,2612.181396 
	C1182.696533,2617.611328 1162.923462,2623.142334 1143.174683,2628.756104 
	C1135.134521,2631.041260 1130.900513,2636.291992 1131.675659,2644.963379 
	C1113.682739,2634.589355 1099.358276,2619.659912 1084.999878,2605.220703 
	C1047.958252,2567.970947 1016.019836,2526.682617 991.669678,2478.374023 
z"/>
<path fill="#01B9FF" opacity="1.000000" stroke="none" 
	d="
M982.468994,1995.960693 
	C992.858948,1969.777100 1007.787292,1946.072021 1024.039673,1923.358032 
	C1108.139282,1805.822510 1221.429321,1733.115479 1363.131470,1705.166626 
	C1394.481445,1698.983276 1426.399902,1696.233276 1458.472046,1696.271240 
	C1525.116577,1696.350098 1591.763062,1696.000000 1658.405518,1696.383179 
	C1719.165283,1696.732544 1769.777954,1719.421265 1808.182861,1769.495605 
	C1804.851807,1773.678467 1802.128906,1775.719727 1799.069824,1776.625488 
	C1776.849731,1783.203247 1754.607056,1789.715210 1732.282959,1795.929443 
	C1708.053833,1802.674072 1683.714355,1809.021484 1659.449341,1815.638428 
	C1629.428223,1823.824707 1599.437012,1832.120483 1569.427368,1840.349243 
	C1547.084839,1846.475830 1524.737427,1852.585449 1502.385132,1858.676514 
	C1465.975586,1868.598145 1429.555786,1878.483032 1393.148560,1888.413208 
	C1370.798096,1894.509521 1348.465332,1900.670532 1326.120361,1906.786621 
	C1290.359741,1916.574341 1254.605957,1926.387329 1218.828979,1936.114990 
	C1196.472778,1942.193848 1174.049072,1948.025879 1151.709229,1954.163086 
	C1111.487549,1965.212280 1071.407715,1976.796021 1031.057495,1987.348633 
	C1015.181763,1991.500488 999.651306,1998.754639 982.468994,1995.960693 
z"/>
<path fill="#018BFF" opacity="1.000000" stroke="none" 
	d="
M2462.273926,2464.519775 
	C2450.721191,2496.395264 2440.117676,2528.658447 2427.305176,2560.019043 
	C2417.613281,2583.740967 2403.844482,2605.460693 2386.574463,2624.786865 
	C2381.783447,2630.148682 2379.156494,2637.444336 2374.364990,2642.805664 
	C2317.116699,2706.862061 2246.225342,2745.638672 2160.699463,2756.386719 
	C2142.931396,2758.619385 2124.891113,2759.531494 2106.972168,2759.581787 
	C2004.407959,2759.869385 1901.842651,2759.718506 1799.277588,2759.695068 
	C1792.034912,2759.693604 1784.792236,2759.522217 1777.460815,2759.428467 
	C1778.984497,2744.097412 1795.368530,2689.922363 1817.433105,2633.268066 
	C1827.865723,2632.065674 1835.545898,2631.392822 1843.404541,2629.010498 
	C1860.474121,2623.836182 1877.972534,2620.094727 1895.218628,2615.479980 
	C1917.572632,2609.498047 1939.844116,2603.207275 1962.165283,2597.101074 
	C1997.888062,2587.328857 2033.622437,2577.598389 2069.352295,2567.851562 
	C2092.315918,2561.587158 2115.279785,2555.322754 2138.244629,2549.062012 
	C2173.975586,2539.320068 2209.700928,2529.557861 2245.441650,2519.850586 
	C2267.775635,2513.784668 2290.144531,2507.845703 2312.477783,2501.776855 
	C2356.513184,2489.811523 2400.503662,2477.677979 2444.601318,2465.946289 
	C2450.220947,2464.451172 2456.370117,2464.946533 2462.273926,2464.519775 
z"/>
<path fill="#00ACFF" opacity="1.000000" stroke="none" 
	d="
M1805.128052,2058.995117 
	C1786.638550,2060.318115 1770.416382,2066.615479 1753.805908,2070.987305 
	C1728.152954,2077.738770 1702.609253,2084.905273 1677.016357,2091.885254 
	C1641.830566,2101.481445 1606.636108,2111.045410 1571.457397,2120.666748 
	C1548.435913,2126.963135 1525.443359,2133.364746 1502.424072,2139.668945 
	C1465.971069,2149.652100 1429.519775,2159.642334 1393.042236,2169.535400 
	C1370.010742,2175.781494 1346.906738,2181.760498 1323.881836,2188.030273 
	C1288.688843,2197.613281 1253.540405,2207.359619 1218.364624,2217.005615 
	C1195.348755,2223.317383 1172.316406,2229.569336 1149.294312,2235.858398 
	C1113.473511,2245.644043 1077.653687,2255.433838 1041.836060,2265.230957 
	C1019.454773,2271.352783 997.079407,2277.496094 974.698425,2283.618896 
	C967.661072,2285.544434 960.670044,2287.687012 953.554138,2289.262207 
	C947.779114,2290.540283 941.848938,2291.117676 934.367432,2292.007812 
	C926.268677,2257.142334 927.715088,2222.043701 932.045044,2185.326904 
	C958.013611,2177.104736 981.594238,2170.417725 1005.217468,2163.885254 
	C1028.197632,2157.531006 1051.221436,2151.334473 1074.226074,2145.068848 
	C1110.019653,2135.320557 1145.816772,2125.585205 1181.605469,2115.819336 
	C1204.607788,2109.542480 1227.598755,2103.223877 1250.592896,2096.917236 
	C1285.734375,2087.278809 1320.859375,2077.580322 1356.020142,2068.013184 
	C1379.024414,2061.753662 1402.098999,2055.752686 1425.107910,2049.510010 
	C1461.549561,2039.623291 1497.967285,2029.648682 1534.385620,2019.676147 
	C1557.382935,2013.378784 1580.354248,2006.987427 1603.352295,2000.692627 
	C1638.496094,1991.073608 1673.658936,1981.524048 1708.802002,1971.901855 
	C1735.000610,1964.728760 1761.088257,1957.126709 1787.400146,1950.399658 
	C1805.928223,1945.662598 1824.060425,1938.288696 1843.809082,1939.995972 
	C1843.419067,1942.564941 1843.386597,1945.251587 1842.585815,1947.685303 
	C1830.485718,1984.461060 1818.284546,2021.203613 1805.128052,2058.995117 
z"/>
<path fill="#0092FF" opacity="1.000000" stroke="none" 
	d="
M2463.044434,2463.410889 
	C2456.370117,2464.946533 2450.220947,2464.451172 2444.601318,2465.946289 
	C2400.503662,2477.677979 2356.513184,2489.811523 2312.477783,2501.776855 
	C2290.144531,2507.845703 2267.775635,2513.784668 2245.441650,2519.850586 
	C2209.700928,2529.557861 2173.975586,2539.320068 2138.244629,2549.062012 
	C2115.279785,2555.322754 2092.315918,2561.587158 2069.352295,2567.851562 
	C2033.622437,2577.598389 1997.888062,2587.328857 1962.165283,2597.101074 
	C1939.844116,2603.207275 1917.572632,2609.498047 1895.218628,2615.479980 
	C1877.972534,2620.094727 1860.474121,2623.836182 1843.404541,2629.010498 
	C1835.545898,2631.392822 1827.865723,2632.065674 1818.208984,2632.005859 
	C1819.141968,2622.427734 1821.450806,2612.749268 1824.437256,2603.284424 
	C1837.653687,2561.400635 1851.064697,2519.578125 1866.964111,2476.710449 
	C1876.058960,2474.968750 1882.732422,2474.853516 1889.101440,2473.402100 
	C1901.360962,2470.608643 1913.463257,2467.114990 1925.603516,2463.811768 
	C1948.602783,2457.554199 1971.584473,2451.231689 1994.570557,2444.925537 
	C2029.699585,2435.288086 2064.810303,2425.583740 2099.959473,2416.020020 
	C2122.955811,2409.762939 2146.027344,2403.781494 2169.028320,2397.540527 
	C2205.457031,2387.655762 2241.853027,2377.650879 2278.266357,2367.708496 
	C2300.621826,2361.604248 2323.002197,2355.589355 2345.338135,2349.415283 
	C2380.451172,2339.709717 2415.528076,2329.873047 2450.638184,2320.157227 
	C2462.762939,2316.802246 2474.893066,2313.442627 2487.116699,2310.479492 
	C2492.862305,2309.086182 2498.834229,2308.626221 2504.703613,2307.743164 
	C2510.216553,2318.468994 2507.770264,2329.697754 2506.237061,2340.665527 
	C2505.332520,2347.135742 2502.953857,2353.463379 2500.736084,2359.675781 
	C2488.514648,2393.915039 2476.138184,2428.099121 2463.044434,2463.410889 
z"/>
<path fill="#00B2FF" opacity="1.000000" stroke="none" 
	d="
M981.568726,1996.936768 
	C999.651306,1998.754639 1015.181763,1991.500488 1031.057495,1987.348633 
	C1071.407715,1976.796021 1111.487549,1965.212280 1151.709229,1954.163086 
	C1174.049072,1948.025879 1196.472778,1942.193848 1218.828979,1936.114990 
	C1254.605957,1926.387329 1290.359741,1916.574341 1326.120361,1906.786621 
	C1348.465332,1900.670532 1370.798096,1894.509521 1393.148560,1888.413208 
	C1429.555786,1878.483032 1465.975586,1868.598145 1502.385132,1858.676514 
	C1524.737427,1852.585449 1547.084839,1846.475830 1569.427368,1840.349243 
	C1599.437012,1832.120483 1629.428223,1823.824707 1659.449341,1815.638428 
	C1683.714355,1809.021484 1708.053833,1802.674072 1732.282959,1795.929443 
	C1754.607056,1789.715210 1776.849731,1783.203247 1799.069824,1776.625488 
	C1802.128906,1775.719727 1804.851807,1773.678467 1808.600342,1770.712402 
	C1816.447876,1775.524414 1821.312134,1783.135132 1825.248535,1791.671021 
	C1832.374878,1807.124268 1842.450928,1821.269775 1845.628296,1838.443970 
	C1847.546875,1848.813843 1849.436768,1859.189331 1849.072754,1870.833862 
	C1836.000488,1871.057861 1825.634644,1872.834106 1815.475220,1876.567871 
	C1811.142944,1878.159790 1806.542603,1879.019409 1802.069946,1880.232910 
	C1779.677124,1886.308594 1757.281128,1892.372925 1734.895508,1898.475342 
	C1698.433960,1908.414307 1661.974487,1918.361084 1625.524170,1928.341553 
	C1602.506714,1934.643921 1579.517334,1941.049438 1556.498047,1947.344849 
	C1521.322510,1956.964600 1486.133301,1966.534546 1450.947144,1976.115112 
	C1427.922241,1982.384399 1404.890381,1988.627441 1381.865479,1994.896240 
	C1346.040039,2004.649902 1310.221924,2014.430542 1274.392700,2024.170532 
	C1252.002808,2030.257202 1229.568848,2036.184448 1207.206421,2042.370117 
	C1172.052856,2052.093506 1136.971313,2062.077393 1101.807129,2071.762451 
	C1059.623535,2083.380371 1017.439331,2095.005371 975.132874,2106.162598 
	C964.342285,2109.008545 953.631409,2113.525635 941.979065,2111.560791 
	C949.134155,2071.723633 963.486206,2034.336426 981.568726,1996.936768 
z"/>
<path fill="#0299FF" opacity="1.000000" stroke="none" 
	d="
M2504.762207,2306.204102 
	C2498.834229,2308.626221 2492.862305,2309.086182 2487.116699,2310.479492 
	C2474.893066,2313.442627 2462.762939,2316.802246 2450.638184,2320.157227 
	C2415.528076,2329.873047 2380.451172,2339.709717 2345.338135,2349.415283 
	C2323.002197,2355.589355 2300.621826,2361.604248 2278.266357,2367.708496 
	C2241.853027,2377.650879 2205.457031,2387.655762 2169.028320,2397.540527 
	C2146.027344,2403.781494 2122.955811,2409.762939 2099.959473,2416.020020 
	C2064.810303,2425.583740 2029.699585,2435.288086 1994.570557,2444.925537 
	C1971.584473,2451.231689 1948.602783,2457.554199 1925.603516,2463.811768 
	C1913.463257,2467.114990 1901.360962,2470.608643 1889.101440,2473.402100 
	C1882.732422,2474.853516 1876.058960,2474.968750 1867.687988,2475.509277 
	C1877.550171,2437.899658 1887.760742,2399.922363 1901.257202,2363.151123 
	C1928.601807,2288.651367 1998.913086,2240.546387 2078.411865,2240.373291 
	C2192.213623,2240.125244 2306.016846,2240.202393 2419.819336,2240.343750 
	C2462.991699,2240.397461 2493.989258,2264.128662 2504.762207,2306.204102 
z"/>
<path fill="#0092FF" opacity="1.000000" stroke="none" 
	d="
M1132.316162,2646.109863 
	C1130.900513,2636.291992 1135.134521,2631.041260 1143.174683,2628.756104 
	C1162.923462,2623.142334 1182.696533,2617.611328 1202.496704,2612.181396 
	C1238.252808,2602.375000 1274.035278,2592.664795 1309.807739,2582.917969 
	C1332.798706,2576.653320 1355.794678,2570.406982 1378.782593,2564.131104 
	C1414.550293,2554.365967 1450.307861,2544.562256 1486.080200,2534.813721 
	C1506.514893,2529.245117 1526.970093,2523.751221 1547.416870,2518.226807 
	C1576.178833,2510.455322 1605.045776,2503.043213 1633.636230,2494.685059 
	C1641.571289,2492.365234 1649.265381,2492.091553 1658.989624,2492.187500 
	C1658.888306,2499.313965 1657.353149,2506.474609 1655.085327,2513.395020 
	C1640.569580,2557.689697 1625.933105,2601.945068 1611.258667,2646.187500 
	C1593.215454,2700.587891 1557.597412,2737.243652 1502.177246,2753.716309 
	C1483.446045,2759.284180 1464.191040,2760.458984 1444.789551,2759.674072 
	C1398.688843,2757.809570 1353.282593,2751.300293 1309.015869,2738.078125 
	C1244.664185,2718.857178 1185.307983,2689.810059 1132.316162,2646.109863 
z"/>
<path fill="#00AFFF" opacity="1.000000" stroke="none" 
	d="
M941.298218,2112.889648 
	C953.631409,2113.525635 964.342285,2109.008545 975.132874,2106.162598 
	C1017.439331,2095.005371 1059.623535,2083.380371 1101.807129,2071.762451 
	C1136.971313,2062.077393 1172.052856,2052.093506 1207.206421,2042.370117 
	C1229.568848,2036.184448 1252.002808,2030.257202 1274.392700,2024.170532 
	C1310.221924,2014.430542 1346.040039,2004.649902 1381.865479,1994.896240 
	C1404.890381,1988.627441 1427.922241,1982.384399 1450.947144,1976.115112 
	C1486.133301,1966.534546 1521.322510,1956.964600 1556.498047,1947.344849 
	C1579.517334,1941.049438 1602.506714,1934.643921 1625.524170,1928.341553 
	C1661.974487,1918.361084 1698.433960,1908.414307 1734.895508,1898.475342 
	C1757.281128,1892.372925 1779.677124,1886.308594 1802.069946,1880.232910 
	C1806.542603,1879.019409 1811.142944,1878.159790 1815.475220,1876.567871 
	C1825.634644,1872.834106 1836.000488,1871.057861 1848.740356,1872.214722 
	C1854.742676,1894.426025 1850.746460,1915.882812 1844.644531,1938.616943 
	C1824.060425,1938.288696 1805.928223,1945.662598 1787.400146,1950.399658 
	C1761.088257,1957.126709 1735.000610,1964.728760 1708.802002,1971.901855 
	C1673.658936,1981.524048 1638.496094,1991.073608 1603.352295,2000.692627 
	C1580.354248,2006.987427 1557.382935,2013.378784 1534.385620,2019.676147 
	C1497.967285,2029.648682 1461.549561,2039.623291 1425.107910,2049.510010 
	C1402.098999,2055.752686 1379.024414,2061.753662 1356.020142,2068.013184 
	C1320.859375,2077.580322 1285.734375,2087.278809 1250.592896,2096.917236 
	C1227.598755,2103.223877 1204.607788,2109.542480 1181.605469,2115.819336 
	C1145.816772,2125.585205 1110.019653,2135.320557 1074.226074,2145.068848 
	C1051.221436,2151.334473 1028.197632,2157.531006 1005.217468,2163.885254 
	C981.594238,2170.417725 958.013611,2177.104736 932.830688,2183.863037 
	C930.478699,2160.218506 936.271545,2137.315674 941.298218,2112.889648 
z"/>
</svg>