<svg version="1.1" id="Layer_1" xmlns="http://www.w3.org/2000/svg" xmlns:xlink="http://www.w3.org/1999/xlink" x="0px" y="0px"
	 width="100%" viewBox="0 0 1986 1300" enable-background="new 0 0 1986 1300" xml:space="preserve">
<path fill="#000000" opacity="1.000000" stroke="none" 
	d="
M1133.000000,1301.000000 
	C755.333435,1301.000000 378.166901,1301.000000 1.000253,1301.000000 
	C1.000169,867.666931 1.000169,434.333832 1.000084,1.000544 
	C662.999573,1.000362 1324.999146,1.000362 1986.999023,1.000181 
	C1986.999268,434.332764 1986.999268,867.665527 1986.999634,1300.999146 
	C1702.500000,1301.000000 1418.000000,1301.000000 1133.000000,1301.000000 
M406.634674,944.911133 
	C420.801697,950.466064 434.806244,956.489563 449.171844,961.471924 
	C474.004700,970.084534 499.910370,973.343323 526.002502,974.890564 
	C537.805786,975.590515 549.495483,974.602051 561.083618,971.181396 
	C584.475647,964.276489 602.207520,950.321167 612.749817,928.675781 
	C619.508972,914.797974 623.565002,899.603516 628.990051,884.235413 
	C633.364624,870.837585 637.739197,857.439819 642.775269,843.656921 
	C643.709900,840.392883 644.576660,837.107605 645.592163,833.869019 
	C648.399597,824.916260 651.269104,815.982910 654.769470,806.668701 
	C654.936646,805.867798 655.030518,805.043152 655.281921,804.269592 
	C659.525330,791.213013 663.788269,778.162781 668.715149,764.735901 
	C668.991577,763.812988 669.253601,762.885437 669.546692,761.967896 
	C672.733032,751.991821 675.924255,742.017334 679.770020,731.669312 
	C681.363159,726.752258 682.947510,721.832336 684.551025,716.918701 
	C690.308167,699.277222 696.071777,681.637817 702.169983,663.310608 
	C702.564026,662.269348 703.002930,661.242554 703.345398,660.184570 
	C709.514954,641.124634 715.673035,622.060913 722.170654,602.310730 
	C727.724670,585.872925 733.278687,569.435181 738.989380,552.232544 
	C744.670959,535.846130 750.879089,519.594360 751.976562,501.080078 
	C752.277405,485.571594 749.563904,470.624115 743.191895,455.710938 
	C741.395569,451.951691 739.857422,448.040894 737.756470,444.460419 
	C730.181885,431.551971 720.743835,420.284973 707.815674,411.305237 
	C704.120544,408.973480 700.554077,406.400116 696.707581,404.352722 
	C681.827026,396.432098 665.952637,392.068207 649.045715,392.023926 
	C616.576965,391.938904 584.104004,392.304077 551.640137,391.897491 
	C528.011841,391.601562 504.483856,392.445953 481.337738,397.168945 
	C467.500000,399.992523 453.904816,404.165894 440.390686,408.346802 
	C433.518005,410.472992 426.977844,413.772125 420.441742,416.866974 
	C408.186890,422.669647 395.466614,427.771118 383.975464,434.846069 
	C360.189972,449.490570 338.131714,466.525696 320.272247,488.314789 
	C310.973114,499.659973 302.185059,511.424072 292.865540,523.636414 
	C292.308502,524.241394 291.593231,524.761780 291.217834,525.463867 
	C283.695068,539.533813 275.929626,553.484863 268.843689,567.772705 
	C265.507996,574.498596 263.493195,581.879639 260.217102,589.334717 
	C259.097595,593.370544 257.807556,597.368042 256.890564,601.449402 
	C254.164978,613.580383 251.586166,625.744385 248.229919,638.333496 
	C248.140717,640.153748 248.075333,641.975525 247.958542,643.794006 
	C247.033600,658.195618 246.098877,672.596619 245.020340,687.922607 
	C245.682968,699.007507 246.228134,710.101379 247.080032,721.171753 
	C247.334702,724.481079 248.447067,727.724426 249.020691,731.845581 
	C250.928543,740.698486 252.488632,749.645142 254.844406,758.377197 
	C257.093933,766.715332 260.171967,774.829834 262.984100,783.823425 
	C269.692932,798.418945 276.293915,813.065613 283.184967,827.574585 
	C284.948914,831.288513 287.629669,834.566956 289.993927,838.768616 
	C295.625732,846.861572 301.257538,854.954529 307.166473,863.672974 
	C307.983429,864.488464 308.835938,865.271606 309.612030,866.124390 
	C318.400330,875.781311 327.177032,885.448853 336.225067,895.735901 
	C341.605835,900.442993 346.835144,905.339600 352.414398,909.798279 
	C357.025330,913.483093 362.049896,916.650208 367.173828,920.679871 
	C380.150665,928.567017 393.127502,936.454102 406.634674,944.911133 
M730.021057,907.786194 
	C729.913330,908.423340 729.879700,909.083923 729.686951,909.694275 
	C725.763733,922.119019 721.822205,934.538025 717.219666,947.351196 
	C714.491699,956.433044 711.763733,965.514954 708.960510,974.847351 
	C710.433716,974.911987 711.422424,974.997681 712.410706,974.992798 
	C778.490540,974.665222 844.570740,974.388794 910.649536,973.908813 
	C917.496216,973.859131 924.380310,972.878113 931.154663,971.766113 
	C934.117737,971.279724 936.793518,969.222778 939.706909,968.178162 
	C941.114319,967.673523 942.780396,967.935303 944.310059,967.715637 
	C946.513062,967.399170 948.758423,967.157410 950.873230,966.513977 
	C952.720886,965.951965 954.351929,964.704041 956.184998,964.062927 
	C962.882080,961.720703 969.914124,960.124878 976.296204,957.131165 
	C999.512939,946.240662 1019.702087,931.295227 1036.742554,911.918335 
	C1052.662598,893.815308 1064.792969,873.669739 1072.988281,850.248779 
	C1077.603394,837.165405 1082.218384,824.081970 1087.160645,810.328125 
	C1091.051392,799.551636 1094.942017,788.775085 1099.163940,777.321899 
	C1101.759521,770.575989 1104.492798,763.879089 1106.919189,757.072876 
	C1110.770508,746.269775 1113.065796,735.305298 1109.013672,723.181030 
	C1108.010864,721.158325 1106.651245,719.233154 1106.067627,717.096008 
	C1103.648804,708.240845 1097.152954,702.898376 1089.850098,697.350220 
	C1088.913818,696.861572 1087.977661,696.372986 1086.824341,695.340759 
	C1086.129517,695.021362 1085.434814,694.701904 1084.121826,694.040100 
	C1082.414795,693.415588 1080.707642,692.791138 1078.362061,692.015015 
	C1077.574341,691.732178 1076.786743,691.449402 1075.140259,691.023560 
	C1069.062378,690.682617 1062.984741,690.053467 1056.906494,690.045471 
	C998.768738,689.969482 940.630798,689.965271 882.493103,690.041260 
	C875.569824,690.050293 868.631958,690.471619 861.727539,691.031006 
	C846.307251,692.280273 832.282349,698.000427 819.487061,706.208374 
	C800.995544,718.070374 786.947876,734.078857 779.115417,754.865479 
	C775.650269,764.061646 773.120789,773.610413 769.827393,783.684875 
	C766.182007,795.107056 762.536621,806.529236 758.227173,818.334595 
	C752.582153,836.339783 746.937073,854.344910 741.038513,873.062073 
	C737.414551,884.374695 733.790527,895.687256 730.021057,907.786194 
M981.977295,300.500793 
	C971.889648,308.595673 961.201111,316.060699 951.876587,324.955597 
	C941.754639,334.611206 932.401794,345.193573 923.602234,356.089478 
	C906.571960,377.177063 893.655945,400.735504 884.956299,426.419495 
	C875.994141,452.878601 867.654846,479.548035 858.914795,506.083221 
	C854.424255,519.716553 849.638184,533.023132 851.794250,548.026550 
	C854.302307,565.479370 861.603516,579.749573 874.781067,591.370483 
	C887.391968,602.491638 902.109314,607.765320 918.673645,607.946472 
	C939.167480,608.170532 959.665649,608.000061 980.161987,608.000061 
	C1036.818481,608.000061 1093.474976,607.999207 1150.131470,608.002869 
	C1152.749756,608.003052 1155.062256,608.281799 1156.609131,605.011292 
	C1161.764526,594.110535 1166.532837,582.897339 1172.950317,572.753296 
	C1182.434082,557.762695 1192.207275,542.729187 1203.727417,529.320801 
	C1213.879272,517.505005 1226.239258,507.467621 1238.257324,497.400818 
	C1258.979736,480.042877 1282.822876,468.045959 1308.160278,458.950989 
	C1335.239502,449.230743 1363.276978,445.122345 1391.965576,445.002563 
	C1396.252930,444.984680 1400.540649,445.000122 1404.530151,445.000122 
	C1405.020020,442.795502 1405.453857,441.213745 1405.715820,439.604004 
	C1407.497559,428.655487 1409.969482,417.754578 1410.781372,406.732422 
	C1411.494873,397.047058 1410.602295,387.205658 1409.940674,377.465637 
	C1408.947021,362.839020 1404.565186,349.037415 1398.350708,335.856506 
	C1389.235718,316.523224 1375.875488,300.411285 1359.381470,287.003448 
	C1341.519165,272.483368 1321.328247,261.924805 1299.759521,254.057877 
	C1266.547119,241.944107 1231.967285,237.162903 1196.853638,236.162186 
	C1184.519409,235.810669 1172.084351,236.860382 1159.781372,238.114288 
	C1145.325928,239.587540 1130.891113,241.560181 1116.576904,244.058289 
	C1085.147583,249.543320 1055.080078,259.596649 1026.669678,273.984344 
	C1011.459534,281.687164 997.198120,291.263489 981.977295,300.500793 
M1243.928711,763.249756 
	C1242.245605,767.652222 1240.501221,772.032349 1238.891235,776.461426 
	C1234.524658,788.473450 1230.215088,800.506226 1225.713867,813.000061 
	C1228.348999,813.000061 1230.336914,813.000122 1232.324829,813.000122 
	C1340.297607,813.000122 1448.270508,813.086914 1556.242920,812.869568 
	C1567.362061,812.847168 1578.593994,811.706665 1589.571777,809.875610 
	C1616.597290,805.368042 1639.571411,792.398071 1659.453613,773.919128 
	C1669.824829,764.280029 1678.084229,752.938599 1685.269409,740.625366 
	C1697.434448,719.778320 1703.184692,697.250732 1703.785278,673.468811 
	C1704.052612,662.882935 1703.092407,651.981628 1700.696533,641.687378 
	C1697.920288,629.758240 1694.100586,617.768616 1688.665527,606.833191 
	C1680.619629,590.644775 1669.467529,576.512146 1655.394043,564.686951 
	C1643.252808,554.485291 1630.083862,546.205750 1615.575684,540.050537 
	C1593.494507,530.682434 1570.324463,527.608948 1546.435181,527.917480 
	C1499.019165,528.529846 1451.594482,528.477966 1404.178955,529.118286 
	C1390.514526,529.302734 1377.658691,533.964783 1365.219116,539.389893 
	C1347.718506,547.022095 1332.780273,558.459534 1320.811279,573.079041 
	C1313.138428,582.450989 1305.984375,592.888916 1301.382568,604.002075 
	C1291.328369,628.281982 1282.968384,653.267883 1274.068115,678.020020 
	C1263.959595,706.133057 1254.016724,734.305725 1243.928711,763.249756 
M985.500000,1160.000000 
	C1108.468262,1160.000000 1231.436646,1159.915405 1354.404663,1160.092285 
	C1372.654541,1160.118530 1390.183105,1157.589722 1407.312744,1151.119385 
	C1426.640381,1143.819336 1443.421143,1132.709717 1457.827026,1118.200195 
	C1470.565552,1105.370239 1480.608887,1090.509155 1487.731689,1073.733398 
	C1494.371460,1058.095581 1498.088989,1041.801636 1498.922974,1024.919678 
	C1499.713745,1008.915710 1497.579224,993.240295 1493.152466,977.743713 
	C1487.585938,958.257019 1478.106323,940.934021 1465.013184,925.772156 
	C1455.328491,914.557068 1444.313477,904.593689 1431.423218,896.828430 
	C1410.311157,884.110352 1387.727661,876.324097 1362.979126,876.071533 
	C1333.323120,875.768738 1303.661743,875.960754 1274.002930,876.043945 
	C1269.741455,876.055908 1265.445801,876.412354 1261.226929,877.027344 
	C1234.701294,880.894348 1213.444824,893.854126 1198.759033,916.094543 
	C1191.482300,927.114502 1186.380127,939.624817 1180.778809,951.685852 
	C1167.336548,980.630066 1148.583374,1005.951233 1127.038208,1029.127075 
	C1115.483521,1041.556396 1102.414551,1052.633179 1089.581909,1063.806763 
	C1069.530884,1081.265381 1046.759033,1094.749146 1023.241028,1106.867676 
	C990.138916,1123.924683 956.751343,1140.427612 923.496765,1157.189209 
	C922.195129,1157.845093 921.006165,1158.724609 918.964233,1160.000000 
	C941.516174,1160.000000 963.008118,1160.000000 985.500000,1160.000000 
z"/>
<path fill="#085BFF" opacity="1.000000" stroke="none" 
	d="
M982.242920,300.247559 
	C997.198120,291.263489 1011.459534,281.687164 1026.669678,273.984344 
	C1055.080078,259.596649 1085.147583,249.543320 1116.576904,244.058289 
	C1130.891113,241.560181 1145.325928,239.587540 1159.781372,238.114288 
	C1172.084351,236.860382 1184.519409,235.810669 1196.853638,236.162186 
	C1231.967285,237.162903 1266.547119,241.944107 1299.759521,254.057877 
	C1321.328247,261.924805 1341.519165,272.483368 1359.381470,287.003448 
	C1375.875488,300.411285 1389.235718,316.523224 1398.350708,335.856506 
	C1404.565186,349.037415 1408.947021,362.839020 1409.940674,377.465637 
	C1410.602295,387.205658 1411.494873,397.047058 1410.781372,406.732422 
	C1409.969482,417.754578 1407.497559,428.655487 1405.715820,439.604004 
	C1405.453857,441.213745 1405.020020,442.795502 1404.530151,445.000122 
	C1400.540649,445.000122 1396.252930,444.984680 1391.965576,445.002563 
	C1363.276978,445.122345 1335.239502,449.230743 1308.160278,458.950989 
	C1282.822876,468.045959 1258.979736,480.042877 1238.257324,497.400818 
	C1226.239258,507.467621 1213.879272,517.505005 1203.727417,529.320801 
	C1192.207275,542.729187 1182.434082,557.762695 1172.950317,572.753296 
	C1166.532837,582.897339 1161.764526,594.110535 1156.609131,605.011292 
	C1155.062256,608.281799 1152.749756,608.003052 1150.131470,608.002869 
	C1093.474976,607.999207 1036.818481,608.000061 980.161987,608.000061 
	C959.665649,608.000061 939.167480,608.170532 918.673645,607.946472 
	C902.109314,607.765320 887.391968,602.491638 874.781067,591.370483 
	C861.603516,579.749573 854.302307,565.479370 851.794250,548.026550 
	C849.638184,533.023132 854.424255,519.716553 858.914795,506.083221 
	C867.654846,479.548035 875.994141,452.878601 884.956299,426.419495 
	C893.655945,400.735504 906.571960,377.177063 923.602234,356.089478 
	C932.401794,345.193573 941.754639,334.611206 951.876587,324.955597 
	C961.201111,316.060699 971.889648,308.595673 982.242920,300.247559 
z"/>
<path fill="#085BFF" opacity="1.000000" stroke="none" 
	d="
M1243.965332,762.851135 
	C1254.016724,734.305725 1263.959595,706.133057 1274.068115,678.020020 
	C1282.968384,653.267883 1291.328369,628.281982 1301.382568,604.002075 
	C1305.984375,592.888916 1313.138428,582.450989 1320.811279,573.079041 
	C1332.780273,558.459534 1347.718506,547.022095 1365.219116,539.389893 
	C1377.658691,533.964783 1390.514526,529.302734 1404.178955,529.118286 
	C1451.594482,528.477966 1499.019165,528.529846 1546.435181,527.917480 
	C1570.324463,527.608948 1593.494507,530.682434 1615.575684,540.050537 
	C1630.083862,546.205750 1643.252808,554.485291 1655.394043,564.686951 
	C1669.467529,576.512146 1680.619629,590.644775 1688.665527,606.833191 
	C1694.100586,617.768616 1697.920288,629.758240 1700.696533,641.687378 
	C1703.092407,651.981628 1704.052612,662.882935 1703.785278,673.468811 
	C1703.184692,697.250732 1697.434448,719.778320 1685.269409,740.625366 
	C1678.084229,752.938599 1669.824829,764.280029 1659.453613,773.919128 
	C1639.571411,792.398071 1616.597290,805.368042 1589.571777,809.875610 
	C1578.593994,811.706665 1567.362061,812.847168 1556.242920,812.869568 
	C1448.270508,813.086914 1340.297607,813.000122 1232.324829,813.000122 
	C1230.336914,813.000122 1228.348999,813.000061 1225.713867,813.000061 
	C1230.215088,800.506226 1234.524658,788.473450 1238.891235,776.461426 
	C1240.501221,772.032349 1242.245605,767.652222 1243.965332,762.851135 
z"/>
<path fill="#085BFF" opacity="1.000000" stroke="none" 
	d="
M985.000000,1160.000000 
	C963.008118,1160.000000 941.516174,1160.000000 918.964233,1160.000000 
	C921.006165,1158.724609 922.195129,1157.845093 923.496765,1157.189209 
	C956.751343,1140.427612 990.138916,1123.924683 1023.241028,1106.867676 
	C1046.759033,1094.749146 1069.530884,1081.265381 1089.581909,1063.806763 
	C1102.414551,1052.633179 1115.483521,1041.556396 1127.038208,1029.127075 
	C1148.583374,1005.951233 1167.336548,980.630066 1180.778809,951.685852 
	C1186.380127,939.624817 1191.482300,927.114502 1198.759033,916.094543 
	C1213.444824,893.854126 1234.701294,880.894348 1261.226929,877.027344 
	C1265.445801,876.412354 1269.741455,876.055908 1274.002930,876.043945 
	C1303.661743,875.960754 1333.323120,875.768738 1362.979126,876.071533 
	C1387.727661,876.324097 1410.311157,884.110352 1431.423218,896.828430 
	C1444.313477,904.593689 1455.328491,914.557068 1465.013184,925.772156 
	C1478.106323,940.934021 1487.585938,958.257019 1493.152466,977.743713 
	C1497.579224,993.240295 1499.713745,1008.915710 1498.922974,1024.919678 
	C1498.088989,1041.801636 1494.371460,1058.095581 1487.731689,1073.733398 
	C1480.608887,1090.509155 1470.565552,1105.370239 1457.827026,1118.200195 
	C1443.421143,1132.709717 1426.640381,1143.819336 1407.312744,1151.119385 
	C1390.183105,1157.589722 1372.654541,1160.118530 1354.404663,1160.092285 
	C1231.436646,1159.915405 1108.468262,1160.000000 985.000000,1160.000000 
z"/>
<path fill="#00B6FF" opacity="1.000000" stroke="none" 
	d="
M260.879822,588.963867 
	C263.493195,581.879639 265.507996,574.498596 268.843689,567.772705 
	C275.929626,553.484863 283.695068,539.533813 291.217834,525.463867 
	C291.593231,524.761780 292.308502,524.241394 293.395905,523.290527 
	C303.884338,520.238281 313.843292,517.535034 323.800385,514.825073 
	C358.658905,505.337738 393.521637,495.865906 428.373779,486.355133 
	C477.680145,472.899994 526.980835,459.423950 576.279419,445.940369 
	C610.804626,436.497406 645.285706,426.890198 679.867615,417.660065 
	C689.131042,415.187622 698.691467,413.828186 708.115540,411.957764 
	C720.743835,420.284973 730.181885,431.551971 737.756470,444.460419 
	C739.857422,448.040894 741.395569,451.951691 743.154785,456.324280 
	C740.780640,458.107483 738.560425,459.700623 736.088806,460.383331 
	C703.514648,469.380310 670.908325,478.260559 638.303650,487.146729 
	C603.449707,496.645966 568.584167,506.102478 533.732483,515.609985 
	C484.266327,529.104431 434.807465,542.625916 385.346893,556.140869 
	C353.229279,564.916931 321.136322,573.784424 288.984100,582.431824 
	C279.701874,584.928345 270.252563,586.803711 260.879822,588.963867 
z"/>
<path fill="#00A6FF" opacity="1.000000" stroke="none" 
	d="
M262.885803,783.042664 
	C260.171967,774.829834 257.093933,766.715332 254.844406,758.377197 
	C252.488632,749.645142 250.928543,740.698486 249.510849,731.421875 
	C253.102371,730.459473 256.270111,730.165222 259.294830,729.344055 
	C290.304474,720.925964 321.287628,712.410095 352.284729,703.945557 
	C389.545898,693.770569 426.815491,683.626404 464.077667,673.455261 
	C513.867432,659.864624 563.655334,646.267578 613.440430,632.660034 
	C649.574524,622.783752 685.702698,612.886169 721.833496,602.998047 
	C715.673035,622.060913 709.514954,641.124634 703.345398,660.184570 
	C703.002930,661.242554 702.564026,662.269348 701.623840,663.681641 
	C682.797607,669.090271 664.527588,674.164612 646.235352,679.157837 
	C611.410095,688.664124 576.564514,698.096069 541.741333,707.610046 
	C493.599518,720.762756 445.472168,733.968323 397.335693,747.140564 
	C361.553802,756.932007 325.781250,766.758118 289.972931,776.452087 
	C281.006317,778.879517 271.918121,780.857910 262.885803,783.042664 
z"/>
<path fill="#00A0FF" opacity="1.000000" stroke="none" 
	d="
M262.934937,783.433044 
	C271.918121,780.857910 281.006317,778.879517 289.972931,776.452087 
	C325.781250,766.758118 361.553802,756.932007 397.335693,747.140564 
	C445.472168,733.968323 493.599518,720.762756 541.741333,707.610046 
	C576.564514,698.096069 611.410095,688.664124 646.235352,679.157837 
	C664.527588,674.164612 682.797607,669.090271 701.455322,664.025146 
	C696.071777,681.637817 690.308167,699.277222 684.551025,716.918701 
	C682.947510,721.832336 681.363159,726.752258 678.998169,731.846863 
	C674.947571,732.479126 671.576904,732.591797 668.404785,733.443787 
	C647.032837,739.183960 625.711182,745.111023 604.357788,750.920898 
	C561.972473,762.453064 519.567444,773.912659 477.188538,785.468445 
	C424.054657,799.956726 370.921906,814.449890 317.831116,829.094849 
	C308.410950,831.693359 299.197906,835.042786 289.889221,838.045471 
	C287.629669,834.566956 284.948914,831.288513 283.184967,827.574585 
	C276.293915,813.065613 269.692932,798.418945 262.934937,783.433044 
z"/>
<path fill="#00AEFF" opacity="1.000000" stroke="none" 
	d="
M751.832458,501.999084 
	C750.879089,519.594360 744.670959,535.846130 738.496582,552.615845 
	C736.037781,553.269470 734.014099,553.327271 732.114319,553.842224 
	C704.641052,561.288757 677.186096,568.803040 649.723206,576.288025 
	C615.032837,585.742737 580.332886,595.162415 545.648621,604.639282 
	C497.476593,617.801208 449.316406,631.006287 401.148895,644.184692 
	C369.197327,652.926514 337.236450,661.634338 305.290009,670.394836 
	C285.239197,675.893250 265.207458,681.461060 245.167145,686.997803 
	C246.098877,672.596619 247.033600,658.195618 247.958542,643.794006 
	C248.075333,641.975525 248.140717,640.153748 248.875061,638.341919 
	C251.117950,638.252930 252.789948,638.428833 254.302597,638.018005 
	C296.063507,626.675964 337.805237,615.263489 379.556458,603.885803 
	C418.096649,593.383301 456.653229,582.941040 495.186157,572.412170 
	C543.191040,559.295166 591.182129,546.127747 639.173401,532.961060 
	C676.730957,522.656982 714.279785,512.320923 751.832458,501.999084 
z"/>
<path fill="#00B2FF" opacity="1.000000" stroke="none" 
	d="
M751.904541,501.539581 
	C714.279785,512.320923 676.730957,522.656982 639.173401,532.961060 
	C591.182129,546.127747 543.191040,559.295166 495.186157,572.412170 
	C456.653229,582.941040 418.096649,593.383301 379.556458,603.885803 
	C337.805237,615.263489 296.063507,626.675964 254.302597,638.018005 
	C252.789948,638.428833 251.117950,638.252930 249.235092,638.122925 
	C251.586166,625.744385 254.164978,613.580383 256.890564,601.449402 
	C257.807556,597.368042 259.097595,593.370544 260.548462,589.149292 
	C270.252563,586.803711 279.701874,584.928345 288.984100,582.431824 
	C321.136322,573.784424 353.229279,564.916931 385.346893,556.140869 
	C434.807465,542.625916 484.266327,529.104431 533.732483,515.609985 
	C568.584167,506.102478 603.449707,496.645966 638.303650,487.146729 
	C670.908325,478.260559 703.514648,469.380310 736.088806,460.383331 
	C738.560425,459.700623 740.780640,458.107483 743.377686,456.606079 
	C749.563904,470.624115 752.277405,485.571594 751.904541,501.539581 
z"/>
<path fill="#00AAFF" opacity="1.000000" stroke="none" 
	d="
M245.093750,687.460205 
	C265.207458,681.461060 285.239197,675.893250 305.290009,670.394836 
	C337.236450,661.634338 369.197327,652.926514 401.148895,644.184692 
	C449.316406,631.006287 497.476593,617.801208 545.648621,604.639282 
	C580.332886,595.162415 615.032837,585.742737 649.723206,576.288025 
	C677.186096,568.803040 704.641052,561.288757 732.114319,553.842224 
	C734.014099,553.327271 736.037781,553.269470 738.418335,552.998291 
	C733.278687,569.435181 727.724670,585.872925 722.002075,602.654419 
	C685.702698,612.886169 649.574524,622.783752 613.440430,632.660034 
	C563.655334,646.267578 513.867432,659.864624 464.077667,673.455261 
	C426.815491,683.626404 389.545898,693.770569 352.284729,703.945557 
	C321.287628,712.410095 290.304474,720.925964 259.294830,729.344055 
	C256.270111,730.165222 253.102371,730.459473 249.583740,730.998169 
	C248.447067,727.724426 247.334702,724.481079 247.080032,721.171753 
	C246.228134,710.101379 245.682968,699.007507 245.093750,687.460205 
z"/>
<path fill="#008AFF" opacity="1.000000" stroke="none" 
	d="
M1072.833374,850.999207 
	C1064.792969,873.669739 1052.662598,893.815308 1036.742554,911.918335 
	C1019.702087,931.295227 999.512939,946.240662 976.296204,957.131165 
	C969.914124,960.124878 962.882080,961.720703 956.184998,964.062927 
	C954.351929,964.704041 952.720886,965.951965 950.873230,966.513977 
	C948.758423,967.157410 946.513062,967.399170 944.310059,967.715637 
	C942.780396,967.935303 941.114319,967.673523 939.706909,968.178162 
	C936.793518,969.222778 934.117737,971.279724 931.154663,971.766113 
	C924.380310,972.878113 917.496216,973.859131 910.649536,973.908813 
	C844.570740,974.388794 778.490540,974.665222 712.410706,974.992798 
	C711.422424,974.997681 710.433716,974.911987 708.960510,974.847351 
	C711.763733,965.514954 714.491699,956.433044 717.953857,947.139893 
	C742.791931,940.446716 766.913025,934.027954 790.996094,927.469727 
	C841.096619,913.826538 891.177063,900.109558 941.265747,886.422791 
	C972.731628,877.824646 1004.185242,869.181519 1035.669434,860.650818 
	C1048.022217,857.303833 1060.443359,854.208923 1072.833374,850.999207 
z"/>
<path fill="#00BAFF" opacity="1.000000" stroke="none" 
	d="
M707.965576,411.631531 
	C698.691467,413.828186 689.131042,415.187622 679.867615,417.660065 
	C645.285706,426.890198 610.804626,436.497406 576.279419,445.940369 
	C526.980835,459.423950 477.680145,472.899994 428.373779,486.355133 
	C393.521637,495.865906 358.658905,505.337738 323.800385,514.825073 
	C313.843292,517.535034 303.884338,520.238281 293.546204,522.971802 
	C302.185059,511.424072 310.973114,499.659973 320.272247,488.314789 
	C338.131714,466.525696 360.189972,449.490570 383.975464,434.846069 
	C395.466614,427.771118 408.186890,422.669647 420.441742,416.866974 
	C426.977844,413.772125 433.518005,410.472992 440.390686,408.346802 
	C453.904816,404.165894 467.500000,399.992523 481.337738,397.168945 
	C504.483856,392.445953 528.011841,391.601562 551.640137,391.897491 
	C584.104004,392.304077 616.576965,391.938904 649.045715,392.023926 
	C665.952637,392.068207 681.827026,396.432098 696.707581,404.352722 
	C700.554077,406.400116 704.120544,408.973480 707.965576,411.631531 
z"/>
<path fill="#0093FF" opacity="1.000000" stroke="none" 
	d="
M741.292053,872.350098 
	C746.937073,854.344910 752.582153,836.339783 758.876953,818.327637 
	C761.542419,818.658264 763.711548,819.650085 765.547058,819.219727 
	C773.315002,817.397949 780.984253,815.155212 788.688721,813.063171 
	C831.063049,801.556580 873.445984,790.081848 915.808838,778.533447 
	C969.083008,764.010498 1022.366089,749.519226 1075.584839,734.795654 
	C1086.895630,731.666382 1097.945679,727.595093 1109.115845,723.957886 
	C1113.065796,735.305298 1110.770508,746.269775 1106.919189,757.072876 
	C1104.492798,763.879089 1101.759521,770.575989 1098.633057,777.687744 
	C1095.135376,779.093628 1092.218872,780.317200 1089.193848,781.145142 
	C1058.037354,789.672791 1026.855591,798.108337 995.695862,806.624146 
	C943.977905,820.758301 892.274109,834.943848 840.558228,849.085510 
	C810.363159,857.342224 780.154419,865.549194 749.957458,873.799072 
	C746.814758,874.657654 743.745300,875.444519 741.292053,872.350098 
z"/>
<path fill="#0099FF" opacity="1.000000" stroke="none" 
	d="
M335.956848,895.113586 
	C327.177032,885.448853 318.400330,875.781311 309.612030,866.124390 
	C308.835938,865.271606 307.983429,864.488464 307.336731,863.181519 
	C309.899048,861.562744 312.186249,860.052734 314.698578,859.363770 
	C383.215759,840.576294 451.752808,821.861267 520.293274,803.158752 
	C567.324768,790.325439 614.359436,777.503601 661.426819,764.803223 
	C663.457947,764.255188 665.832336,764.979553 668.046875,765.111145 
	C663.788269,778.162781 659.525330,791.213013 655.281921,804.269592 
	C655.030518,805.043152 654.936646,805.867798 654.027405,806.853027 
	C651.166382,807.438477 649.007202,807.692993 646.934631,808.262756 
	C621.115234,815.360596 595.329346,822.580994 569.494385,829.621460 
	C494.075134,850.174255 418.632599,870.641724 343.228271,891.249084 
	C340.645355,891.955017 338.373627,893.799683 335.956848,895.113586 
z"/>
<path fill="#0097FF" opacity="1.000000" stroke="none" 
	d="
M1109.064697,723.569458 
	C1097.945679,727.595093 1086.895630,731.666382 1075.584839,734.795654 
	C1022.366089,749.519226 969.083008,764.010498 915.808838,778.533447 
	C873.445984,790.081848 831.063049,801.556580 788.688721,813.063171 
	C780.984253,815.155212 773.315002,817.397949 765.547058,819.219727 
	C763.711548,819.650085 761.542419,818.658264 759.208984,818.136047 
	C762.536621,806.529236 766.182007,795.107056 770.358032,783.317383 
	C772.234497,782.117981 774.351990,781.570862 774.783875,780.401306 
	C776.164856,776.661499 779.056824,775.729858 782.415894,774.869629 
	C791.764954,772.475525 801.066895,769.896118 810.377808,767.354553 
	C859.820435,753.858582 909.258484,740.345825 958.701355,726.850891 
	C996.265747,716.598145 1033.848633,706.412292 1071.361572,695.974426 
	C1073.210083,695.460083 1074.466797,692.817932 1075.999023,691.166626 
	C1076.786743,691.449402 1077.574341,691.732178 1078.687256,692.453613 
	C1079.528564,698.742859 1082.260498,696.077576 1084.739990,694.382446 
	C1085.434814,694.701904 1086.129517,695.021362 1087.031982,695.940369 
	C1088.197998,697.012573 1089.156372,697.485229 1090.114868,697.957886 
	C1097.152954,702.898376 1103.648804,708.240845 1106.067627,717.096008 
	C1106.651245,719.233154 1108.010864,721.158325 1109.064697,723.569458 
z"/>
<path fill="#008DFF" opacity="1.000000" stroke="none" 
	d="
M1072.910889,850.624023 
	C1060.443359,854.208923 1048.022217,857.303833 1035.669434,860.650818 
	C1004.185242,869.181519 972.731628,877.824646 941.265747,886.422791 
	C891.177063,900.109558 841.096619,913.826538 790.996094,927.469727 
	C766.913025,934.027954 742.791931,940.446716 718.286255,946.943359 
	C721.822205,934.538025 725.763733,922.119019 729.686951,909.694275 
	C729.879700,909.083923 729.913330,908.423340 730.491577,907.385010 
	C732.265198,906.738708 733.592163,906.581299 734.868103,906.235779 
	C757.983154,899.976013 781.098267,893.716370 804.200989,887.411316 
	C853.615173,873.925354 903.021973,860.412109 952.432495,846.912537 
	C988.207458,837.138428 1023.970520,827.320190 1059.768311,817.630676 
	C1068.731812,815.204529 1077.808594,813.197937 1086.833374,810.998535 
	C1082.218384,824.081970 1077.603394,837.165405 1072.910889,850.624023 
z"/>
<path fill="#009BFF" opacity="1.000000" stroke="none" 
	d="
M1075.569580,691.095093 
	C1074.466797,692.817932 1073.210083,695.460083 1071.361572,695.974426 
	C1033.848633,706.412292 996.265747,716.598145 958.701355,726.850891 
	C909.258484,740.345825 859.820435,753.858582 810.377808,767.354553 
	C801.066895,769.896118 791.764954,772.475525 782.415894,774.869629 
	C779.056824,775.729858 776.164856,776.661499 774.783875,780.401306 
	C774.351990,781.570862 772.234497,782.117981 770.527588,782.974487 
	C773.120789,773.610413 775.650269,764.061646 779.115417,754.865479 
	C786.947876,734.078857 800.995544,718.070374 819.487061,706.208374 
	C832.282349,698.000427 846.307251,692.280273 861.727539,691.031006 
	C868.631958,690.471619 875.569824,690.050293 882.493103,690.041260 
	C940.630798,689.965271 998.768738,689.969482 1056.906494,690.045471 
	C1062.984741,690.053467 1069.062378,690.682617 1075.569580,691.095093 
z"/>
<path fill="#009BFF" opacity="1.000000" stroke="none" 
	d="
M668.380981,764.923523 
	C665.832336,764.979553 663.457947,764.255188 661.426819,764.803223 
	C614.359436,777.503601 567.324768,790.325439 520.293274,803.158752 
	C451.752808,821.861267 383.215759,840.576294 314.698578,859.363770 
	C312.186249,860.052734 309.899048,861.562744 307.198151,862.868774 
	C301.257538,854.954529 295.625732,846.861572 289.941589,838.407043 
	C299.197906,835.042786 308.410950,831.693359 317.831116,829.094849 
	C370.921906,814.449890 424.054657,799.956726 477.188538,785.468445 
	C519.567444,773.912659 561.972473,762.453064 604.357788,750.920898 
	C625.711182,745.111023 647.032837,739.183960 668.404785,733.443787 
	C671.576904,732.591797 674.947571,732.479126 678.670288,732.033447 
	C675.924255,742.017334 672.733032,751.991821 669.546692,761.967896 
	C669.253601,762.885437 668.991577,763.812988 668.380981,764.923523 
z"/>
<path fill="#0097FF" opacity="1.000000" stroke="none" 
	d="
M336.090942,895.424744 
	C338.373627,893.799683 340.645355,891.955017 343.228271,891.249084 
	C418.632599,870.641724 494.075134,850.174255 569.494385,829.621460 
	C595.329346,822.580994 621.115234,815.360596 646.934631,808.262756 
	C649.007202,807.692993 651.166382,807.438477 653.699707,807.039673 
	C651.269104,815.982910 648.399597,824.916260 645.592163,833.869019 
	C644.576660,837.107605 643.709900,840.392883 642.073608,843.906738 
	C637.109192,845.547668 632.893860,847.111206 628.575439,848.300415 
	C608.697632,853.774536 588.784729,859.121033 568.896179,864.556091 
	C519.656433,878.012329 470.417969,891.472839 421.189941,904.971680 
	C403.074554,909.939087 384.989868,915.018433 366.891174,920.046753 
	C362.049896,916.650208 357.025330,913.483093 352.414398,909.798279 
	C346.835144,905.339600 341.605835,900.442993 336.090942,895.424744 
z"/>
<path fill="#0090FF" opacity="1.000000" stroke="none" 
	d="
M1086.997070,810.663330 
	C1077.808594,813.197937 1068.731812,815.204529 1059.768311,817.630676 
	C1023.970520,827.320190 988.207458,837.138428 952.432495,846.912537 
	C903.021973,860.412109 853.615173,873.925354 804.200989,887.411316 
	C781.098267,893.716370 757.983154,899.976013 734.868103,906.235779 
	C733.592163,906.581299 732.265198,906.738708 730.564331,906.991821 
	C733.790527,895.687256 737.414551,884.374695 741.165283,872.706055 
	C743.745300,875.444519 746.814758,874.657654 749.957458,873.799072 
	C780.154419,865.549194 810.363159,857.342224 840.558228,849.085510 
	C892.274109,834.943848 943.977905,820.758301 995.695862,806.624146 
	C1026.855591,798.108337 1058.037354,789.672791 1089.193848,781.145142 
	C1092.218872,780.317200 1095.135376,779.093628 1098.467529,778.026123 
	C1094.942017,788.775085 1091.051392,799.551636 1086.997070,810.663330 
z"/>
<path fill="#0090FF" opacity="1.000000" stroke="none" 
	d="
M628.832764,884.999268 
	C623.565002,899.603516 619.508972,914.797974 612.749817,928.675781 
	C602.207520,950.321167 584.475647,964.276489 561.083618,971.181396 
	C549.495483,974.602051 537.805786,975.590515 526.002502,974.890564 
	C499.910370,973.343323 474.004700,970.084534 449.171844,961.471924 
	C434.806244,956.489563 420.801697,950.466064 406.852722,944.562622 
	C410.500122,943.597229 413.995728,943.226257 417.347931,942.323120 
	C437.430023,936.912292 457.477692,931.373657 477.539673,925.888062 
	C509.639465,917.110962 541.728271,908.293274 573.847534,899.587952 
	C592.149536,894.627502 610.502686,889.855896 628.832764,884.999268 
z"/>
<path fill="#0093FF" opacity="1.000000" stroke="none" 
	d="
M628.911377,884.617371 
	C610.502686,889.855896 592.149536,894.627502 573.847534,899.587952 
	C541.728271,908.293274 509.639465,917.110962 477.539673,925.888062 
	C457.477692,931.373657 437.430023,936.912292 417.347931,942.323120 
	C413.995728,943.226257 410.500122,943.597229 406.587585,944.277710 
	C393.127502,936.454102 380.150665,928.567017 367.032501,920.363281 
	C384.989868,915.018433 403.074554,909.939087 421.189941,904.971680 
	C470.417969,891.472839 519.656433,878.012329 568.896179,864.556091 
	C588.784729,859.121033 608.697632,853.774536 628.575439,848.300415 
	C632.893860,847.111206 637.109192,845.547668 641.742859,844.099243 
	C637.739197,857.439819 633.364624,870.837585 628.911377,884.617371 
z"/>
<path fill="#009BFF" opacity="1.000000" stroke="none" 
	d="
M1084.430908,694.211304 
	C1082.260498,696.077576 1079.528564,698.742859 1079.006470,692.529480 
	C1080.707642,692.791138 1082.414795,693.415588 1084.430908,694.211304 
z"/>
<path fill="#009BFF" opacity="1.000000" stroke="none" 
	d="
M1089.982422,697.654053 
	C1089.156372,697.485229 1088.197998,697.012573 1087.140381,696.212158 
	C1087.977661,696.372986 1088.913818,696.861572 1089.982422,697.654053 
z"/>
</svg>